<?xml version="1.0" encoding="UTF-8" standalone="no"?><!DOCTYPE svg PUBLIC "-//W3C//DTD SVG 1.1//EN" "http://www.w3.org/Graphics/SVG/1.1/DTD/svg11.dtd"><!-- Generated by graphviz version 2.40.1 (20161225.0304)
 --><!-- Title: G Pages: 1 --><svg xmlns="http://www.w3.org/2000/svg" xmlns:xlink="http://www.w3.org/1999/xlink" width="275pt" height="279pt" viewBox="0.00 0.00 274.80 278.87">
<g id="graph0" class="graph" transform="scale(1 1) rotate(0) translate(4 274.8715)">
<title>G</title>
<polygon fill="#ffffff" stroke="transparent" points="-4,4 -4,-274.8715 270.7959,-274.8715 270.7959,4 -4,4"/>
<!-- 0 -->
<g id="node1" class="node">
<title>0</title>
<ellipse fill="none" stroke="#318ce7" cx="141.9072" cy="-252.8715" rx="18" ry="18"/>
<text text-anchor="middle" x="141.9072" y="-248.6715" font-family="Times,serif" font-size="14.00" fill="#318ce7">0</text>
</g>
<!-- 2 -->
<g id="node2" class="node">
<title>2</title>
<ellipse fill="none" stroke="#318ce7" cx="134.3937" cy="-159.8492" rx="18" ry="18"/>
<text text-anchor="middle" x="134.3937" y="-155.6492" font-family="Times,serif" font-size="14.00" fill="#318ce7">2</text>
</g>
<!-- 0&#45;&gt;2 -->
<g id="edge1" class="edge">
<title>0-&gt;2</title>
<path fill="none" stroke="#318ce7" d="M140.4228,-234.4933C139.356,-221.2852 137.8975,-203.2286 136.6823,-188.1834"/>
<polygon fill="#318ce7" stroke="#318ce7" points="140.1433,-187.5585 135.8495,-177.8727 133.166,-188.1221 140.1433,-187.5585"/>
</g>
<!-- 3 -->
<g id="node5" class="node">
<title>3</title>
<ellipse fill="none" stroke="#318ce7" cx="164.9548" cy="-202.6171" rx="18" ry="18"/>
<text text-anchor="middle" x="164.9548" y="-198.4171" font-family="Times,serif" font-size="14.00" fill="#318ce7">3</text>
</g>
<!-- 2&#45;&gt;3 -->
<g id="edge4" class="edge">
<title>2-&gt;3</title>
<path fill="none" stroke="#318ce7" d="M145.0825,-174.8073C146.2185,-176.3971 147.3919,-178.0392 148.5741,-179.6936"/>
<polygon fill="#318ce7" stroke="#318ce7" points="145.765,-181.7825 154.4267,-187.8838 151.4604,-177.7127 145.765,-181.7825"/>
</g>
<!-- 8 -->
<g id="node6" class="node">
<title>8</title>
<ellipse fill="none" stroke="#318ce7" cx="167.8111" cy="-83.9802" rx="18" ry="18"/>
<text text-anchor="middle" x="167.8111" y="-79.7802" font-family="Times,serif" font-size="14.00" fill="#318ce7">8</text>
</g>
<!-- 2&#45;&gt;8 -->
<g id="edge5" class="edge">
<title>2-&gt;8</title>
<path fill="none" stroke="#318ce7" d="M141.8101,-143.0114C146.123,-133.2196 151.6471,-120.6781 156.4934,-109.6752"/>
<polygon fill="#318ce7" stroke="#318ce7" points="159.7025,-111.0724 160.5304,-100.5099 153.2964,-108.2507 159.7025,-111.0724"/>
</g>
<!-- 1 -->
<g id="node3" class="node">
<title>1</title>
<ellipse fill="none" stroke="#318ce7" cx="72.6278" cy="-177.3035" rx="18" ry="18"/>
<text text-anchor="middle" x="72.6278" y="-173.1035" font-family="Times,serif" font-size="14.00" fill="#318ce7">1</text>
</g>
<!-- 1&#45;&gt;2 -->
<g id="edge2" class="edge">
<title>1-&gt;2</title>
<path fill="none" stroke="#318ce7" d="M90.1622,-172.3485C95.4228,-170.8619 101.3234,-169.1945 107.0585,-167.5738"/>
<polygon fill="#318ce7" stroke="#318ce7" points="108.3579,-170.8438 117.0292,-164.7562 106.4543,-164.1075 108.3579,-170.8438"/>
</g>
<!-- 5 -->
<g id="node4" class="node">
<title>5</title>
<ellipse fill="none" stroke="#318ce7" cx="18" cy="-113.4289" rx="18" ry="18"/>
<text text-anchor="middle" x="18" y="-109.2289" font-family="Times,serif" font-size="14.00" fill="#318ce7">5</text>
</g>
<!-- 1&#45;&gt;5 -->
<g id="edge3" class="edge">
<title>1-&gt;5</title>
<path fill="none" stroke="#318ce7" d="M60.7743,-163.4437C53.6874,-155.1571 44.53,-144.4496 36.5075,-135.0692"/>
<polygon fill="#318ce7" stroke="#318ce7" points="38.9898,-132.5866 29.8303,-127.2617 33.6699,-137.1363 38.9898,-132.5866"/>
</g>
<!-- 6 -->
<g id="node9" class="node">
<title>6</title>
<ellipse fill="none" stroke="#318ce7" cx="41.7369" cy="-32.5073" rx="18" ry="18"/>
<text text-anchor="middle" x="41.7369" y="-28.3073" font-family="Times,serif" font-size="14.00" fill="#318ce7">6</text>
</g>
<!-- 5&#45;&gt;6 -->
<g id="edge11" class="edge">
<title>5-&gt;6</title>
<path fill="none" stroke="#318ce7" d="M28.2849,-98.2361C32.6539,-87.6554 37.1494,-73.249 40.1296,-60.6143"/>
<polygon fill="#318ce7" stroke="#318ce7" points="43.6151,-61.046 42.2406,-50.5407 36.7639,-59.6103 43.6151,-61.046"/>
</g>
<!-- 3&#45;&gt;0 -->
<g id="edge6" class="edge">
<title>3-&gt;0</title>
<path fill="none" stroke="#318ce7" d="M157.4081,-219.0722C156.2266,-221.6486 154.9815,-224.3635 153.7317,-227.0887"/>
<polygon fill="#318ce7" stroke="#318ce7" points="150.5371,-225.6586 149.5497,-236.2073 156.8998,-228.5767 150.5371,-225.6586"/>
</g>
<!-- 3&#45;&gt;1 -->
<g id="edge7" class="edge">
<title>3-&gt;1</title>
<path fill="none" stroke="#318ce7" d="M147.5888,-197.8558C134.262,-194.2019 115.6041,-189.0864 100.2369,-184.8732"/>
<polygon fill="#318ce7" stroke="#318ce7" points="100.7994,-181.3983 90.2298,-182.1295 98.9484,-188.1491 100.7994,-181.3983"/>
</g>
<!-- 4 -->
<g id="node7" class="node">
<title>4</title>
<ellipse fill="none" stroke="#318ce7" cx="242.8737" cy="-170.154" rx="18" ry="18"/>
<text text-anchor="middle" x="242.8737" y="-165.954" font-family="Times,serif" font-size="14.00" fill="#318ce7">4</text>
</g>
<!-- 3&#45;&gt;4 -->
<g id="edge8" class="edge">
<title>3-&gt;4</title>
<path fill="none" stroke="#318ce7" d="M183.2505,-201.0533C194.2346,-197.7923 208.2761,-192.2226 219.9853,-186.5896"/>
<polygon fill="#318ce7" stroke="#318ce7" points="221.85,-189.567 229.1541,-181.8923 218.6582,-183.337 221.85,-189.567"/>
</g>
<!-- 10 -->
<g id="node8" class="node">
<title>10</title>
<ellipse fill="none" stroke="#318ce7" cx="246.1025" cy="-87.6524" rx="20.8887" ry="20.8887"/>
<text text-anchor="middle" x="246.1025" y="-83.4524" font-family="Times,serif" font-size="14.00" fill="#318ce7">10</text>
</g>
<!-- 8&#45;&gt;10 -->
<g id="edge16" class="edge">
<title>8-&gt;10</title>
<path fill="none" stroke="#318ce7" d="M185.9695,-84.8319C194.5945,-85.2365 205.1495,-85.7315 214.9954,-86.1933"/>
<polygon fill="#318ce7" stroke="#318ce7" points="215.123,-89.7031 225.276,-86.6755 215.451,-82.7108 215.123,-89.7031"/>
</g>
<!-- 7 -->
<g id="node10" class="node">
<title>7</title>
<ellipse fill="none" stroke="#318ce7" cx="122.3129" cy="-18" rx="18" ry="18"/>
<text text-anchor="middle" x="122.3129" y="-13.8" font-family="Times,serif" font-size="14.00" fill="#318ce7">7</text>
</g>
<!-- 8&#45;&gt;7 -->
<g id="edge15" class="edge">
<title>8-&gt;7</title>
<path fill="none" stroke="#318ce7" d="M157.4869,-69.0083C151.8442,-60.8254 144.7303,-50.509 138.379,-41.2986"/>
<polygon fill="#318ce7" stroke="#318ce7" points="141.1546,-39.1582 132.5963,-32.9127 135.3919,-43.1321 141.1546,-39.1582"/>
</g>
<!-- 4&#45;&gt;3 -->
<g id="edge9" class="edge">
<title>4-&gt;3</title>
<path fill="none" stroke="#318ce7" d="M224.578,-171.7178C213.5939,-174.9787 199.5523,-180.5484 187.8432,-186.1814"/>
<polygon fill="#318ce7" stroke="#318ce7" points="185.9785,-183.2041 178.6743,-190.8787 189.1702,-189.4341 185.9785,-183.2041"/>
</g>
<!-- 4&#45;&gt;10 -->
<g id="edge10" class="edge">
<title>4-&gt;10</title>
<path fill="none" stroke="#318ce7" d="M243.5903,-151.8442C243.9704,-142.131 244.4479,-129.9295 244.8843,-118.7798"/>
<polygon fill="#318ce7" stroke="#318ce7" points="248.3917,-118.6569 245.2855,-108.5277 241.397,-118.3831 248.3917,-118.6569"/>
</g>
<!-- 6&#45;&gt;5 -->
<g id="edge12" class="edge">
<title>6-&gt;5</title>
<path fill="none" stroke="#318ce7" d="M31.452,-47.7001C27.083,-58.2808 22.5875,-72.6872 19.6072,-85.3219"/>
<polygon fill="#318ce7" stroke="#318ce7" points="16.1218,-84.8902 17.4963,-95.3955 22.973,-86.3259 16.1218,-84.8902"/>
</g>
<!-- 6&#45;&gt;7 -->
<g id="edge13" class="edge">
<title>6-&gt;7</title>
<path fill="none" stroke="#318ce7" d="M59.6193,-29.2877C69.8426,-27.447 82.8881,-25.0982 94.4289,-23.0204"/>
<polygon fill="#318ce7" stroke="#318ce7" points="95.2589,-26.4273 104.4805,-21.2106 94.0185,-19.5381 95.2589,-26.4273"/>
</g>
<!-- 9 -->
<g id="node11" class="node">
<title>9</title>
<ellipse fill="none" stroke="#318ce7" cx="199.4403" cy="-24.6645" rx="18" ry="18"/>
<text text-anchor="middle" x="199.4403" y="-20.4645" font-family="Times,serif" font-size="14.00" fill="#318ce7">9</text>
</g>
<!-- 7&#45;&gt;9 -->
<g id="edge14" class="edge">
<title>7-&gt;9</title>
<path fill="none" stroke="#318ce7" d="M140.591,-19.5794C149.716,-20.3679 160.9594,-21.3394 171.1654,-22.2213"/>
<polygon fill="#318ce7" stroke="#318ce7" points="171.0292,-25.7225 181.2934,-23.0964 171.6319,-18.7485 171.0292,-25.7225"/>
</g>
<!-- 9&#45;&gt;8 -->
<g id="edge17" class="edge">
<title>9-&gt;8</title>
<path fill="none" stroke="#318ce7" d="M190.9643,-40.56C187.9152,-46.278 184.3986,-52.8729 181.0416,-59.1684"/>
<polygon fill="#318ce7" stroke="#318ce7" points="177.9274,-57.5701 176.3106,-68.0408 184.1042,-60.8638 177.9274,-57.5701"/>
</g>
<!-- 9&#45;&gt;10 -->
<g id="edge18" class="edge">
<title>9-&gt;10</title>
<path fill="none" stroke="#318ce7" d="M210.2628,-39.2735C215.4034,-46.2126 221.6942,-54.7044 227.5624,-62.6257"/>
<polygon fill="#318ce7" stroke="#318ce7" points="224.9247,-64.945 233.6898,-70.8968 230.5495,-60.7781 224.9247,-64.945"/>
</g>
</g>
</svg>